<svg width="602" height="200" viewBox="0 0 602 200" fill="none" xmlns="http://www.w3.org/2000/svg">
<path d="M254 97.9498H292.236V86.903H266.49V71.4376H289.261V60.9016H266.49V46.9571H292.236V35.9104H254V97.9498Z" fill="#1E1E1E"/>
<path d="M346.371 35.9104H332.693L326.031 49.5107C325.465 50.7541 324.977 51.8865 324.577 52.9079C324.286 53.6341 324.034 54.3753 323.822 55.1284C323.595 54.3733 323.324 53.6319 323.012 52.9079C322.59 51.8865 322.057 50.7541 321.435 49.5107L315.018 35.9104H300.985L316.528 65.8865L299.875 97.9275H313.552L321.035 82.6286C321.608 81.4949 322.12 80.3312 322.568 79.1425C322.956 78.0323 323.245 77.2441 323.411 76.6778C323.644 77.2441 323.977 78.0656 324.433 79.1425C324.888 80.2195 325.399 81.363 325.965 82.6286L333.448 97.9275H347.47L330.816 65.8865L346.371 35.9104Z" fill="#1E1E1E"/>
<path d="M363.879 96.4622C367.275 98.0057 370.962 98.8043 374.692 98.8043C378.423 98.8043 382.11 98.0057 385.506 96.4622C388.434 95.0023 390.88 92.7327 392.556 89.923C394.276 86.9393 395.144 83.5406 395.065 80.0975V53.7629C395.144 50.3198 394.276 46.9211 392.556 43.9375C390.88 41.1278 388.434 38.8581 385.506 37.3982C382.11 35.8547 378.423 35.0562 374.692 35.0562C370.962 35.0562 367.275 35.8547 363.879 37.3982C360.932 38.8475 358.469 41.1186 356.785 43.9375C355.064 46.9211 354.196 50.3198 354.275 53.7629V80.0975C354.196 83.5406 355.064 86.9393 356.785 89.923C358.469 92.7418 360.932 95.0129 363.879 96.4622V96.4622ZM367.021 53.7629C367.021 48.6559 369.571 46.1061 374.67 46.1135C379.77 46.1209 382.32 48.6707 382.32 53.7629V80.0975C382.32 85.2045 379.77 87.7543 374.67 87.7469C369.571 87.7395 367.021 85.1897 367.021 80.0975V53.7629Z" fill="#1E1E1E"/>
<path d="M432.158 85.9704C430.34 87.2543 428.14 87.8808 425.918 87.7468C423.583 87.8786 421.27 87.2388 419.335 85.926C418.553 85.3594 417.923 84.6095 417.499 83.7423C417.075 82.875 416.87 81.917 416.903 80.9522H404.158C404.076 84.2897 404.992 87.5756 406.789 90.3891C408.639 93.1278 411.236 95.278 414.272 96.5842C417.865 98.1355 421.75 98.8929 425.663 98.8046C429.57 98.8987 433.447 98.1133 437.009 96.5065C440.061 95.1024 442.652 92.8619 444.481 90.045C446.294 87.175 447.225 83.8356 447.157 80.4415C447.327 75.9061 445.803 71.4697 442.883 67.9959C440.04 64.7318 435.873 62.4781 430.381 61.2346L424.186 59.7913C422.345 59.4745 420.658 58.5664 419.379 57.2045C418.292 55.9831 417.702 54.3987 417.725 52.7636C417.66 51.8364 417.802 50.9064 418.139 50.0406C418.477 49.1748 419.003 48.3947 419.679 47.7565C421.279 46.5271 423.272 45.9232 425.285 46.0579C427.42 45.9154 429.538 46.5155 431.281 47.7565C431.967 48.3198 432.512 49.0358 432.873 49.8474C433.233 50.6589 433.399 51.5435 433.357 52.4306H446.113C446.214 50.0293 445.766 47.6367 444.804 45.4342C443.842 43.2317 442.392 41.277 440.562 39.7185C436.861 36.5802 431.832 35.0074 425.474 35C419.116 34.9926 414.131 36.6247 410.52 39.8961C408.685 41.5227 407.235 43.5371 406.275 45.7934C405.314 48.0497 404.868 50.4913 404.968 52.9413C404.84 57.4607 406.399 61.8661 409.343 65.298C412.588 68.8635 416.892 71.2921 421.622 72.2258L427.906 73.6691C429.757 73.9985 431.447 74.9315 432.713 76.3226C433.844 77.6133 434.45 79.281 434.412 80.9966C434.462 81.9456 434.284 82.8928 433.891 83.7585C433.499 84.6241 432.905 85.3827 432.158 85.9704V85.9704Z" fill="#1E1E1E"/>
<path d="M468.495 35.9104L453.285 97.9498H466.286L469.262 83.9276H484.05L487.014 97.9498H500.026L484.638 35.9104H468.495ZM471.382 73.7247L474.524 58.6811C474.979 56.5384 475.39 54.4067 475.756 52.3084C476.123 50.2101 476.423 48.5781 476.656 47.379C476.878 48.5781 477.2 50.2323 477.633 52.3528C478.066 54.4734 478.465 56.6161 478.865 58.7699L481.829 73.7247H471.382Z" fill="#1E1E1E"/>
<path d="M529.48 55.4615C528.914 57.4932 528.47 59.2806 528.159 60.8127C527.848 62.3448 527.67 63.4218 527.615 64.0435C527.548 63.4218 527.371 62.3448 527.06 60.8127C526.749 59.2806 526.283 57.4821 525.661 55.4615L520.11 35.9104H505.71V97.9498H517.356V74.1576C517.402 68.507 517.131 62.8583 516.546 57.2378C516.013 52.4861 515.491 48.2672 514.981 44.5813L522.197 71.6041H532.811L540.038 43.5599C539.579 47.8675 539.113 52.4861 538.639 57.4155C538.166 62.3448 537.925 67.9256 537.918 74.1576V97.9498H549.553V35.9104H535.12L529.48 55.4615Z" fill="#1E1E1E"/>
<path d="M571.236 83.9276H586.024L588.999 97.9498H602L586.612 35.9104H570.47L555.26 97.9498H568.26L571.236 83.9276ZM576.509 58.6811C576.953 56.5384 577.364 54.4067 577.742 52.3084C578.119 50.2101 578.408 48.5781 578.63 47.379C578.852 48.5781 579.185 50.2323 579.607 52.3528C580.029 54.4734 580.439 56.6161 580.839 58.7699L583.815 73.7247H573.356L576.509 58.6811Z" fill="#1E1E1E"/>
<path d="M283.565 163.609C283.565 165.252 283.565 167.061 283.699 169.049C283.832 171.036 283.876 172.957 283.998 174.822C284.12 176.687 284.187 178.275 284.254 179.585L264.27 125.361H255.255V187.401H261.805V149.153C261.805 146.322 261.727 143.38 261.594 140.272C261.461 137.163 261.316 134.832 261.205 133.133L281.012 187.356H290.105V125.361H283.554L283.565 163.609Z" fill="#1E1E1E"/>
<path d="M307.113 187.401H342.118V181.283H313.819V157.991H339.143V151.962H313.819V131.479H342.118V125.361H307.113V187.401Z" fill="#1E1E1E"/>
<path d="M353.931 131.479H371.351V187.401H378.068V131.479H395.409V125.361H353.931V131.479Z" fill="#1E1E1E"/>
<path d="M437.553 171.258C437.331 173.012 437.12 174.999 436.921 177.209C436.721 179.418 436.543 181.195 436.365 182.56C436.199 181.195 435.988 179.418 435.733 177.209C435.477 174.999 435.233 173.012 435.011 171.258L429.46 125.361H422.243L416.293 171.258C416.004 173.012 415.749 174.996 415.527 177.209C415.293 179.429 415.105 181.195 414.927 182.56C414.927 181.195 414.749 179.418 414.55 177.209C414.35 174.999 414.161 173.012 413.994 171.258L408.976 125.361H402.604L409.92 187.401H418.502L424.53 141.082C424.764 139.106 424.986 137.085 425.208 135.054C425.43 133.022 425.641 131.401 425.807 130.202C425.918 131.401 426.107 133.011 426.362 135.054C426.618 137.096 426.851 139.106 427.084 141.082L432.635 187.401H441.306L448.7 125.361H442.494L437.553 171.258Z" fill="#1E1E1E"/>
<path d="M476.655 124.517C471.215 124.517 466.922 126.086 463.777 129.225C460.631 132.363 459.058 136.656 459.058 142.103V170.692C459.058 176.132 460.631 180.425 463.777 183.57C466.922 186.716 471.215 188.289 476.655 188.289C482.081 188.289 486.37 186.716 489.523 183.57C492.676 180.425 494.249 176.132 494.241 170.692V142.103C494.241 136.663 492.669 132.37 489.523 129.225C486.377 126.079 482.088 124.51 476.655 124.517ZM487.525 170.692C487.525 174.392 486.577 177.238 484.682 179.229C483.633 180.271 482.376 181.078 480.992 181.599C479.609 182.119 478.131 182.341 476.655 182.249C473.192 182.249 470.516 181.25 468.617 179.229C466.719 177.209 465.775 174.378 465.775 170.692V142.103C465.775 138.403 466.723 135.557 468.617 133.566C470.842 131.623 473.696 130.552 476.65 130.552C479.604 130.552 482.457 131.623 484.682 133.566C486.585 135.579 487.532 138.425 487.525 142.103V170.692Z" fill="#1E1E1E"/>
<path d="M543.913 153.961C546.237 150.802 547.433 146.955 547.31 143.036C547.398 139.794 546.632 136.585 545.09 133.732C543.601 131.109 541.389 128.97 538.717 127.571C535.735 126.041 532.42 125.278 529.069 125.35H510.384V187.389H517.101V160.633H527.726L540.138 187.401H548.121L534.698 159.956C538.366 159.071 541.618 156.955 543.913 153.961V153.961ZM517.057 154.516V131.479H529.036C530.563 131.388 532.093 131.622 533.523 132.166C534.953 132.71 536.251 133.551 537.332 134.634C538.413 135.717 539.252 137.017 539.793 138.448C540.334 139.879 540.565 141.409 540.471 142.936C540.547 144.473 540.312 146.01 539.78 147.454C539.247 148.898 538.429 150.22 537.374 151.34C536.283 152.408 534.983 153.239 533.556 153.781C532.129 154.324 530.605 154.566 529.08 154.493L517.057 154.516Z" fill="#1E1E1E"/>
<path d="M599.446 125.361H592.052L578.285 152.306H568.094V125.361H561.377V187.401H568.094V158.246H578.119L592.485 187.401H600.301L584.236 155.104L599.446 125.361Z" fill="#1E1E1E"/>
<path d="M88.8364 2.2567C81.2658 3.68477 68.7298 6.01199 61.946 9.30889L63.1349 7.36953C59.3056 9.06706 55.6265 11.0901 52.1374 13.4168L52.6619 11.0719C44.223 15.8333 36.8626 22.3186 31.0517 30.1128L30.0726 26.5867C14.5467 43.6178 14.6341 59.256 14.2145 59.6086L11.9416 56.2059C5.24521 67.5247 6.99362 85.878 8.74202 88.8928L2.93732 81.6996C-0.349681 99.2419 1.74841 117.472 8.46228 129.937L3.00726 124.189C4.26611 135.42 7.4482 140.391 7.65801 140.691L0 135.755C2.745 157.44 24.67 173.114 24.67 173.114L18.0785 172.567C23.3237 178.103 34.4436 182.846 34.4436 182.846H29.0935C54.8475 199.912 100.009 200 100.009 200C100.009 200 145.153 200 170.907 182.846H165.556C165.556 182.846 176.641 178.103 181.922 172.567L175.33 173.114C175.33 173.114 197.255 157.44 200 135.755L192.325 140.691C192.517 140.391 195.699 135.402 196.958 124.189L191.503 129.937C198.304 117.472 200.245 99.2419 197.028 81.6996L191.171 88.8928C192.919 85.878 194.807 67.5247 188.023 56.2059L185.751 59.6086C185.331 59.256 185.418 43.6178 169.892 26.5339L168.913 30.0599C163.113 22.2695 155.764 15.7844 147.338 11.019L147.863 13.3639C144.374 11.0372 140.694 9.01417 136.865 7.31664L138.002 9.18547C127.861 4.35472 107.335 0.634697 95.5328 0L88.8364 2.2567ZM66.282 136.425C65.4428 142.472 55.2671 144.764 49.7071 137.976C45.0389 132.246 50.1093 125.353 50.1093 125.353C48.5007 120.152 36.9962 119.376 36.9962 119.376C42.826 118.343 48.8149 118.705 54.4803 120.434C61.7711 122.972 67.401 128.42 66.282 136.425ZM119.766 175.388C114.615 180.545 108.586 184.725 101.967 187.729C100.705 188.244 99.2947 188.244 98.033 187.729C91.4165 184.721 85.3883 180.541 80.2343 175.388C75.7933 171.104 73.5729 167.895 73.5729 163.91C73.6482 162.16 74.0954 160.447 74.8842 158.886C76.8112 154.47 79.64 150.514 83.1859 147.276C86.7319 144.037 90.9152 141.589 95.4629 140.092C98.4122 139.128 101.588 139.128 104.537 140.092C109.085 141.589 113.268 144.037 116.814 147.276C120.36 150.514 123.189 154.47 125.116 158.886C125.912 160.463 126.359 162.195 126.427 163.963C126.427 167.895 124.224 171.104 119.766 175.388ZM150.363 137.976C144.803 144.764 134.627 142.472 133.788 136.425C132.669 128.42 138.299 122.972 145.642 120.434C151.307 118.705 157.296 118.343 163.126 119.376C163.126 119.376 151.622 120.152 150.013 125.353C149.891 125.353 154.961 132.228 150.363 137.976Z" fill="#1E1E1E"/>
</svg>
