<svg width="720" height="299" viewBox="0 0 720 299" fill="none" xmlns="http://www.w3.org/2000/svg">
<rect width="720" height="298.755" fill="#1E1E1E"/>
<path d="M315 135.95H353.236V124.903H327.49V109.438H350.261V98.9016H327.49V84.9571H353.236V73.9104H315V135.95Z" fill="#F3F4F7"/>
<path d="M407.371 73.9104H393.693L387.031 87.5107C386.465 88.7541 385.977 89.8865 385.577 90.9079C385.286 91.6341 385.034 92.3753 384.822 93.1284C384.595 92.3733 384.324 91.6319 384.012 90.9079C383.59 89.8865 383.057 88.7541 382.435 87.5107L376.018 73.9104H361.985L377.528 103.886L360.875 135.928H374.552L382.035 120.629C382.608 119.495 383.12 118.331 383.568 117.143C383.956 116.032 384.245 115.244 384.411 114.678C384.644 115.244 384.977 116.066 385.433 117.143C385.888 118.219 386.399 119.363 386.965 120.629L394.448 135.928H408.47L391.816 103.886L407.371 73.9104Z" fill="#F3F4F7"/>
<path d="M424.879 134.462C428.275 136.006 431.962 136.804 435.692 136.804C439.423 136.804 443.11 136.006 446.506 134.462C449.434 133.002 451.88 130.733 453.556 127.923C455.276 124.939 456.144 121.54 456.065 118.097V91.7628C456.144 88.3197 455.276 84.921 453.556 81.9373C451.88 79.1277 449.434 76.858 446.506 75.3981C443.11 73.8546 439.423 73.056 435.692 73.056C431.962 73.056 428.275 73.8546 424.879 75.3981C421.932 76.8474 419.469 79.1185 417.785 81.9373C416.064 84.921 415.196 88.3197 415.275 91.7628V118.097C415.196 121.54 416.064 124.939 417.785 127.923C419.469 130.742 421.932 133.013 424.879 134.462V134.462ZM428.021 91.7628C428.021 86.6558 430.571 84.106 435.67 84.1134C440.77 84.1208 443.32 86.6706 443.32 91.7628V118.097C443.32 123.204 440.77 125.754 435.67 125.747C430.571 125.739 428.021 123.19 428.021 118.097V91.7628Z" fill="#F3F4F7"/>
<path d="M493.158 123.97C491.34 125.254 489.14 125.881 486.918 125.747C484.583 125.879 482.27 125.239 480.335 123.926C479.553 123.359 478.923 122.61 478.499 121.742C478.075 120.875 477.87 119.917 477.903 118.952H465.158C465.076 122.29 465.992 125.576 467.789 128.389C469.639 131.128 472.236 133.278 475.272 134.584C478.865 136.135 482.75 136.893 486.663 136.805C490.57 136.899 494.447 136.113 498.009 134.506C501.061 133.102 503.652 130.862 505.481 128.045C507.294 125.175 508.225 121.836 508.157 118.442C508.327 113.906 506.803 109.47 503.883 105.996C501.04 102.732 496.873 100.478 491.381 99.2346L485.186 97.7913C483.345 97.4745 481.658 96.5664 480.379 95.2045C479.292 93.9831 478.702 92.3987 478.725 90.7636C478.66 89.8364 478.802 88.9064 479.139 88.0406C479.477 87.1748 480.003 86.3947 480.679 85.7565C482.279 84.5271 484.272 83.9232 486.285 84.0579C488.42 83.9154 490.538 84.5155 492.281 85.7565C492.967 86.3198 493.512 87.0358 493.873 87.8474C494.233 88.6589 494.399 89.5435 494.357 90.4306H507.113C507.214 88.0293 506.766 85.6367 505.804 83.4342C504.842 81.2317 503.392 79.277 501.562 77.7185C497.861 74.5802 492.832 73.0074 486.474 73C480.116 72.9926 475.131 74.6247 471.52 77.8961C469.685 79.5227 468.235 81.5371 467.275 83.7934C466.314 86.0497 465.868 88.4913 465.968 90.9413C465.84 95.4607 467.399 99.8661 470.343 103.298C473.588 106.864 477.892 109.292 482.622 110.226L488.906 111.669C490.757 111.999 492.447 112.932 493.713 114.323C494.844 115.613 495.45 117.281 495.412 118.997C495.462 119.946 495.284 120.893 494.891 121.758C494.499 122.624 493.905 123.383 493.158 123.97V123.97Z" fill="#F3F4F7"/>
<path d="M529.495 73.9104L514.285 135.95H527.286L530.262 121.928H545.05L548.014 135.95H561.026L545.638 73.9104H529.495ZM532.382 111.725L535.524 96.6811C535.979 94.5384 536.39 92.4067 536.756 90.3084C537.123 88.2101 537.423 86.5781 537.656 85.379C537.878 86.5781 538.2 88.2323 538.633 90.3528C539.066 92.4734 539.465 94.6161 539.865 96.7699L542.829 111.725H532.382Z" fill="#F3F4F7"/>
<path d="M590.48 93.4615C589.914 95.4932 589.47 97.2806 589.159 98.8127C588.848 100.345 588.67 101.422 588.615 102.043C588.548 101.422 588.371 100.345 588.06 98.8127C587.749 97.2806 587.283 95.4821 586.661 93.4615L581.11 73.9104H566.71V135.95H578.356V112.158C578.402 106.507 578.131 100.858 577.546 95.2378C577.013 90.4861 576.491 86.2672 575.981 82.5813L583.197 109.604H593.811L601.038 81.5599C600.579 85.8675 600.113 90.4861 599.639 95.4155C599.166 100.345 598.925 105.926 598.918 112.158V135.95H610.553V73.9104H596.12L590.48 93.4615Z" fill="#F3F4F7"/>
<path d="M632.236 121.928H647.024L649.999 135.95H663L647.612 73.9104H631.47L616.26 135.95H629.26L632.236 121.928ZM637.509 96.6811C637.953 94.5384 638.364 92.4067 638.742 90.3084C639.119 88.2101 639.408 86.5781 639.63 85.379C639.852 86.5781 640.185 88.2323 640.607 90.3528C641.029 92.4734 641.439 94.6161 641.839 96.7699L644.815 111.725H634.356L637.509 96.6811Z" fill="#F3F4F7"/>
<path d="M344.565 201.608C344.565 203.252 344.565 205.061 344.699 207.049C344.832 209.036 344.876 210.957 344.998 212.822C345.12 214.687 345.187 216.275 345.254 217.585L325.27 163.361H316.255V225.401H322.805V187.153C322.805 184.322 322.727 181.38 322.594 178.272C322.461 175.163 322.316 172.831 322.205 171.133L342.012 225.356H351.105V163.361H344.554L344.565 201.608Z" fill="#F3F4F7"/>
<path d="M368.113 225.401H403.118V219.283H374.819V195.991H400.143V189.962H374.819V169.479H403.118V163.361H368.113V225.401Z" fill="#F3F4F7"/>
<path d="M414.931 169.479H432.351V225.401H439.068V169.479H456.409V163.361H414.931V169.479Z" fill="#F3F4F7"/>
<path d="M498.553 209.258C498.331 211.012 498.12 212.999 497.921 215.209C497.721 217.418 497.543 219.194 497.365 220.56C497.199 219.194 496.988 217.418 496.733 215.209C496.477 212.999 496.233 211.012 496.011 209.258L490.46 163.361H483.243L477.293 209.258C477.004 211.012 476.749 212.996 476.527 215.209C476.293 217.429 476.105 219.194 475.927 220.56C475.927 219.194 475.749 217.418 475.55 215.209C475.35 212.999 475.161 211.012 474.994 209.258L469.976 163.361H463.604L470.92 225.401H479.502L485.53 179.082C485.764 177.106 485.986 175.085 486.208 173.053C486.43 171.022 486.641 169.401 486.807 168.202C486.918 169.401 487.107 171.011 487.362 173.053C487.618 175.096 487.851 177.106 488.084 179.082L493.635 225.401H502.306L509.7 163.361H503.494L498.553 209.258Z" fill="#F3F4F7"/>
<path d="M537.655 162.517C532.215 162.517 527.922 164.086 524.777 167.225C521.631 170.363 520.058 174.656 520.058 180.103V208.692C520.058 214.132 521.631 218.425 524.777 221.57C527.922 224.716 532.215 226.289 537.655 226.289C543.081 226.289 547.37 224.716 550.523 221.57C553.676 218.425 555.249 214.132 555.241 208.692V180.103C555.241 174.663 553.669 170.37 550.523 167.225C547.377 164.079 543.088 162.51 537.655 162.517ZM548.525 208.692C548.525 212.392 547.577 215.238 545.682 217.229C544.633 218.271 543.376 219.078 541.992 219.599C540.609 220.119 539.131 220.341 537.655 220.249C534.192 220.249 531.516 219.25 529.617 217.229C527.719 215.209 526.775 212.378 526.775 208.692V180.103C526.775 176.403 527.723 173.557 529.617 171.566C531.842 169.623 534.696 168.552 537.65 168.552C540.604 168.552 543.457 169.623 545.682 171.566C547.585 173.579 548.532 176.425 548.525 180.103V208.692Z" fill="#F3F4F7"/>
<path d="M604.913 191.961C607.237 188.802 608.433 184.955 608.31 181.036C608.398 177.794 607.632 174.585 606.09 171.732C604.601 169.109 602.389 166.97 599.717 165.571C596.735 164.041 593.42 163.278 590.069 163.35H571.384V225.389H578.101V198.633H588.726L601.138 225.401H609.121L595.698 197.956C599.366 197.071 602.618 194.955 604.913 191.961V191.961ZM578.057 192.516V169.479H590.036C591.563 169.388 593.093 169.622 594.523 170.166C595.953 170.71 597.251 171.551 598.332 172.634C599.413 173.717 600.252 175.017 600.793 176.448C601.334 177.879 601.565 179.409 601.471 180.936C601.547 182.473 601.312 184.01 600.78 185.454C600.247 186.898 599.429 188.22 598.374 189.34C597.283 190.408 595.983 191.239 594.556 191.781C593.129 192.324 591.605 192.566 590.08 192.493L578.057 192.516Z" fill="#F3F4F7"/>
<path d="M660.446 163.361H653.052L639.285 190.306H629.094V163.361H622.377V225.401H629.094V196.246H639.119L653.485 225.401H661.301L645.236 193.104L660.446 163.361Z" fill="#F3F4F7"/>
<path d="M149.836 52.2567C142.266 53.6848 129.73 56.012 122.946 59.3089L124.135 57.3695C120.306 59.0671 116.626 61.0901 113.137 63.4168L113.662 61.0719C105.223 65.8333 97.8626 72.3186 92.0517 80.1128L91.0726 76.5867C75.5467 93.6178 75.6341 109.256 75.2145 109.609L72.9416 106.206C66.2452 117.525 67.9936 135.878 69.742 138.893L63.9373 131.7C60.6503 149.242 62.7484 167.472 69.4623 179.937L64.0073 174.189C65.2661 185.42 68.4482 190.391 68.658 190.691L61 185.755C63.745 207.44 85.67 223.114 85.67 223.114L79.0785 222.567C84.3237 228.103 95.4436 232.846 95.4436 232.846H90.0935C115.847 249.912 161.009 250 161.009 250C161.009 250 206.153 250 231.907 232.846H226.556C226.556 232.846 237.641 228.103 242.922 222.567L236.33 223.114C236.33 223.114 258.255 207.44 261 185.755L253.325 190.691C253.517 190.391 256.699 185.402 257.958 174.189L252.503 179.937C259.304 167.472 261.245 149.242 258.028 131.7L252.171 138.893C253.919 135.878 255.807 117.525 249.023 106.206L246.751 109.609C246.331 109.256 246.418 93.6178 230.892 76.5339L229.913 80.0599C224.113 72.2695 216.764 65.7844 208.338 61.019L208.863 63.3639C205.374 61.0372 201.694 59.0142 197.865 57.3166L199.002 59.1855C188.861 54.3547 168.335 50.6347 156.533 50L149.836 52.2567ZM127.282 186.425C126.443 192.472 116.267 194.764 110.707 187.976C106.039 182.246 111.109 175.353 111.109 175.353C109.501 170.152 97.9962 169.376 97.9962 169.376C103.826 168.343 109.815 168.705 115.48 170.434C122.771 172.972 128.401 178.42 127.282 186.425ZM180.766 225.388C175.615 230.545 169.586 234.725 162.967 237.729C161.705 238.244 160.295 238.244 159.033 237.729C152.417 234.721 146.388 230.541 141.234 225.388C136.793 221.104 134.573 217.895 134.573 213.91C134.648 212.16 135.095 210.447 135.884 208.886C137.811 204.47 140.64 200.514 144.186 197.276C147.732 194.037 151.915 191.589 156.463 190.092C159.412 189.128 162.588 189.128 165.537 190.092C170.085 191.589 174.268 194.037 177.814 197.276C181.36 200.514 184.189 204.47 186.116 208.886C186.912 210.463 187.359 212.195 187.427 213.963C187.427 217.895 185.224 221.104 180.766 225.388ZM211.363 187.976C205.803 194.764 195.627 192.472 194.788 186.425C193.669 178.42 199.299 172.972 206.642 170.434C212.307 168.705 218.296 168.343 224.126 169.376C224.126 169.376 212.622 170.152 211.013 175.353C210.891 175.353 215.961 182.228 211.363 187.976Z" fill="#F3F4F7"/>
</svg>
