<svg width="200" height="200" viewBox="0 0 200 200" fill="none" xmlns="http://www.w3.org/2000/svg">
<rect width="200" height="200" rx="100" fill="#4D0EA7"/>
<path d="M92.5578 34.8378C87.5107 35.7898 79.1534 37.3413 74.6308 39.5392L75.4234 38.2463C72.8706 39.378 70.4178 40.7267 68.0918 42.2778L68.4415 40.7146C62.8155 43.8889 57.9086 48.2124 54.0346 53.4085L53.3819 51.0578C43.0313 62.4118 43.0896 72.8373 42.8098 73.0724L41.2946 70.8039C36.8303 78.3498 37.9959 90.5853 39.1615 92.5952L35.2917 87.7997C33.1004 99.4946 34.4991 111.648 38.975 119.958L35.3383 116.126C36.1776 123.613 38.299 126.928 38.4388 127.127L33.3335 123.836C35.1635 138.293 49.7802 148.742 49.7802 148.742L45.3858 148.378C48.8826 152.069 56.2959 155.23 56.2959 155.23H52.7291C69.8985 166.608 100.006 166.667 100.006 166.667C100.006 166.667 130.102 166.667 147.271 155.23H143.704C143.704 155.23 151.094 152.069 154.614 148.378L150.22 148.742C150.22 148.742 164.837 138.293 166.667 123.836L161.55 127.127C161.678 126.928 163.799 123.601 164.639 116.126L161.002 119.958C165.536 111.648 166.83 99.4946 164.685 87.7997L160.781 92.5952C161.946 90.5853 163.205 78.3498 158.682 70.8039L157.167 73.0724C156.887 72.8373 156.946 62.4118 146.595 51.0225L145.942 53.3733C142.075 48.1796 137.176 43.8563 131.559 40.6793L131.909 42.2426C129.582 40.6915 127.13 39.3428 124.577 38.2111L125.335 39.457C118.574 36.2365 104.89 33.7564 97.022 33.3333L92.5578 34.8378ZM77.5215 124.283C76.962 128.314 70.1782 129.842 66.4716 125.317C63.3594 121.497 66.7397 116.902 66.7397 116.902C65.6673 113.434 57.9977 112.917 57.9977 112.917C61.8841 112.228 65.8768 112.47 69.6537 113.622C74.5143 115.315 78.2675 118.947 77.5215 124.283ZM113.177 150.259C109.744 153.697 105.724 156.484 101.311 158.486C100.47 158.829 99.53 158.829 98.6889 158.486C94.2779 156.48 90.259 153.694 86.823 150.259C83.8624 147.402 82.3821 145.263 82.3821 142.607C82.4323 141.44 82.7304 140.298 83.2563 139.257C84.541 136.313 86.4268 133.676 88.7908 131.517C91.1547 129.358 93.9436 127.726 96.9754 126.728C98.9416 126.085 101.059 126.085 103.025 126.728C106.057 127.726 108.846 129.358 111.21 131.517C113.574 133.676 115.459 136.313 116.744 139.257C117.275 140.308 117.573 141.463 117.618 142.642C117.618 145.263 116.15 147.402 113.177 150.259ZM133.575 125.317C129.869 129.842 123.085 128.314 122.525 124.283C121.779 118.947 125.533 115.315 130.428 113.622C134.205 112.47 138.198 112.228 142.084 112.917C142.084 112.917 134.415 113.434 133.342 116.902C133.261 116.902 136.641 121.486 133.575 125.317Z" fill="white"/>
</svg>
